<?xml version="1.0" encoding="UTF-8" standalone="no"?>
<!-- Created with Inkscape (http://www.inkscape.org/) -->

<svg
   xmlns:dc="http://purl.org/dc/elements/1.1/"
   xmlns:cc="http://creativecommons.org/ns#"
   xmlns:rdf="http://www.w3.org/1999/02/22-rdf-syntax-ns#"
   xmlns:svg="http://www.w3.org/2000/svg"
   xmlns="http://www.w3.org/2000/svg"
   xmlns:sodipodi="http://sodipodi.sourceforge.net/DTD/sodipodi-0.dtd"
   xmlns:inkscape="http://www.inkscape.org/namespaces/inkscape"
   width="100mm"
   height="100mm"
   viewBox="0 0 100 100"
   version="1.1"
   id="svg8"
   sodipodi:docname="icon.svg"
   inkscape:version="0.92.4 (f8dce91, 2019-08-02)"
   inkscape:export-filename="/home/jaime/Escritorio/icon.png"
   inkscape:export-xdpi="91"
   inkscape:export-ydpi="91">
  <defs
     id="defs2">
    <clipPath
       clipPathUnits="userSpaceOnUse"
       id="clipPath4562">
      <rect
         ry="4.1577382"
         y="13.040181"
         x="-124.92113"
         height="98.866074"
         width="99.811012"
         id="rect4564"
         style="fill:#aa0000;stroke-width:0.26458332"
         clip-path="none" />
    </clipPath>
    <clipPath
       clipPathUnits="userSpaceOnUse"
       id="clipPath4578">
      <rect
         ry="4.1577382"
         y="1.5119057"
         x="-120.00744"
         height="97.930626"
         width="99.811012"
         id="rect4580"
         style="fill:#aa0000;stroke-width:0.26458332" />
    </clipPath>
    <clipPath
       clipPathUnits="userSpaceOnUse"
       id="clipPath4578-3">
      <rect
         ry="4.1577382"
         y="1.5119057"
         x="-120.00744"
         height="97.930626"
         width="99.811012"
         id="rect4580-6"
         style="fill:#aa0000;stroke-width:0.26458332" />
    </clipPath>
  </defs>
  <sodipodi:namedview
     id="base"
     pagecolor="#ffffff"
     bordercolor="#666666"
     borderopacity="1.0"
     inkscape:pageopacity="0.0"
     inkscape:pageshadow="2"
     inkscape:zoom="1.4"
     inkscape:cx="72.826115"
     inkscape:cy="127.25228"
     inkscape:document-units="mm"
     inkscape:current-layer="layer2"
     showgrid="false"
     inkscape:snap-page="true"
     showguides="false"
     inkscape:guide-bbox="true"
     inkscape:window-width="1853"
     inkscape:window-height="1025"
     inkscape:window-x="67"
     inkscape:window-y="27"
     inkscape:window-maximized="1"
     inkscape:snap-global="false">
    <sodipodi:guide
       position="31.183035,81.453868"
       orientation="-0.70710678,0.70710678"
       id="guide4619"
       inkscape:locked="false" />
    <sodipodi:guide
       position="65.956845,10.583333"
       orientation="-0.70710678,0.70710678"
       id="guide4621"
       inkscape:locked="false" />
    <sodipodi:guide
       position="67.704985,78.09933"
       orientation="-0.70710678,0.70710678"
       id="guide4623"
       inkscape:locked="false" />
    <sodipodi:guide
       position="62.407434,24.722431"
       orientation="-0.70710678,0.70710678"
       id="guide4625"
       inkscape:locked="false" />
  </sodipodi:namedview>
  <metadata
     id="metadata5">
    <rdf:RDF>
      <cc:Work
         rdf:about="">
        <dc:format>image/svg+xml</dc:format>
        <dc:type
           rdf:resource="http://purl.org/dc/dcmitype/StillImage" />
        <dc:title></dc:title>
      </cc:Work>
    </rdf:RDF>
  </metadata>
  <g
     inkscape:groupmode="layer"
     id="layer3"
     inkscape:label="Layer 3" />
  <g
     inkscape:groupmode="layer"
     id="layer2"
     inkscape:label="Layer 2"
     style="display:inline">
    <rect
       y="0"
       x="0"
       height="25.164532"
       width="100"
       id="rect4535"
       style="fill:#de8787;stroke-width:0.13272627"
       ry="4.9136906"
       inkscape:export-xdpi="91.327972"
       inkscape:export-ydpi="91.327972" />
    <rect
       ry="4.9136906"
       style="fill:#501616;stroke-width:0.13272627"
       id="rect4566"
       width="100"
       height="25.164532"
       x="0.18899068"
       y="74.958138"
       inkscape:export-xdpi="91.327972"
       inkscape:export-ydpi="91.327972" />
    <rect
       style="fill:#800080;stroke-width:0.26458332"
       id="rect914"
       width="99.811012"
       height="97.930626"
       x="0.18898809"
       y="1.1339295"
       ry="4.1577382"
       inkscape:export-xdpi="91.327972"
       inkscape:export-ydpi="91.327972" />
    <path
       inkscape:connector-curvature="0"
       d="m -119.93657,64.635599 -0.25988,-14.100283 v 49.842664 l -0.10009,-17.197917 0.0986,0.188988 63.235934,-16.365413 -62.534814,16.120116 -0.84138,0.0091 57.369031,-57.747002 -9.386044,1.225775 -0.523352,-7.522118"
       style="display:inline;opacity:0.5;fill:#0f000f;fill-opacity:0.75454544;stroke:none;stroke-width:0.26458332px;stroke-linecap:butt;stroke-linejoin:miter;stroke-opacity:1"
       id="path4576"
       clip-path="url(#clipPath4578)"
       transform="translate(120.21264,-0.31639914)"
       inkscape:export-xdpi="91.327972"
       inkscape:export-ydpi="91.327972"
       sodipodi:nodetypes="ccccccccccc" />
    <path
       inkscape:connector-curvature="0"
       d="m -120.69252,82.40048 0.49609,-31.865164 v 49.842664 h 37.697532 l 5.579265,-0.944941 37.911526,-37.53208 c -39.824515,24.042545 -0.242948,0.516749 -4.21358,0.474115 -7.264003,-0.078 -37.597022,15.482201 -33.017329,12.255689 31.028683,-21.860511 4.494348,-15.920349 -0.174165,-18.219814 l 14.199994,-15.528114 -6.929198,-10.869463 -5.626031,6.085025"
       style="display:inline;opacity:0.5;fill:#0f000f;fill-opacity:0.75294118;stroke:none;stroke-width:0.26458332px;stroke-linecap:butt;stroke-linejoin:miter;stroke-opacity:1"
       id="path4576-7"
       clip-path="url(#clipPath4578-3)"
       transform="translate(120.51819,0.47953594)"
       inkscape:export-xdpi="91.327972"
       inkscape:export-ydpi="91.327972"
       sodipodi:nodetypes="ccccccsscccc" />
    <path
       style="fill:#000000;stroke-width:0.71428573;fill-opacity:0"
       d="m 9.9291099,372.78181 c -3.3243104,-1.50995 -8.2615024,-6.88043 -7.6913163,-8.36632 0.2112108,-0.5504 0.1085589,-1.00163 -0.2281152,-1.00273 -0.3366742,-10e-4 -0.6121349,-25.03982 -0.6121349,-55.6416 V 252.13154 L 88.540401,163.21716 c 47.928569,-48.9029 87.185559,-88.873107 87.237739,-88.822673 0.0522,0.05043 -0.0682,2.548093 -0.26755,5.550352 l -0.36245,5.458652 -2.58958,0.430374 c -7.33955,1.219789 -15.15831,7.370133 -18.53946,14.583395 -1.59811,3.40938 -1.90727,5.05306 -1.90727,10.14035 0,5.20396 0.28579,6.65342 2.00026,10.14473 2.35095,4.78743 7.56285,9.75366 12.86245,12.25614 2.03979,0.96319 9.49443,3.25496 16.56586,5.09282 7.07143,1.83786 13.58036,3.8039 14.46429,4.36898 1.96695,1.25743 2.0642,3.21658 0.24152,4.86607 -1.2044,1.08997 -2.57462,1.19237 -11.60714,0.86747 -5.63284,-0.20261 -11.72551,-0.57718 -13.53927,-0.83237 -3.27994,-0.46148 -3.32622,-0.43844 -8.57143,4.26688 -6.00398,5.38599 -7.24201,7.51799 -6.163,10.61324 0.83704,2.40111 6.8498,5.60636 13.17057,7.02088 l 3.79017,0.84821 v 4.20752 c 0,4.30054 1.09503,7.375 3.27272,9.1886 0.78399,0.65292 3.63217,1.1478 7.92245,1.37655 l 6.6984,0.35714 -13.05392,13.62625 -13.05393,13.62626 -18.57143,0.39821 c -20.10746,0.43116 -23.54543,0.95475 -32.40523,4.93521 -5.50381,2.47271 -8.51616,4.60369 -21.565619,15.25583 l -10.081808,8.22967 h -12.4609 c -13.416673,0 -16.223795,0.55781 -18.39309,3.65491 -1.019424,1.45543 -1.164781,4.58911 -1.164781,25.11093 0,25.61654 0.150954,26.66485 4.073459,28.28857 1.483715,0.61418 23.416348,0.77796 85.212259,0.63632 l 83.21428,-0.19073 4.64286,-2.21371 c 3.26851,-1.55843 14.01419,-9.7717 36.30135,-27.74628 17.41216,-14.0429 31.76556,-25.42173 31.89642,-25.28628 0.13086,0.13545 -28.52003,29.57663 -63.66865,65.42484 l -63.90658,65.17857 -78.704127,-0.0157 c -74.913528,-0.0149 -78.843655,-0.0791 -81.6011331,-1.33155 z"
       id="path4581"
       inkscape:connector-curvature="0"
       transform="scale(0.26458333)" />
  </g>
  <g
     inkscape:label="Layer 1"
     inkscape:groupmode="layer"
     id="layer1"
     transform="translate(0,-197)"
     style="display:inline">
    <path
       transform="translate(0,197)"
       inkscape:connector-curvature="0"
       style="display:inline;fill:#ffffff;stroke-width:0.11765506"
       d="m 45.73225,35.693232 6.364116,1.688027 a 1.0073293,1.0139958 0 0 1 0.777484,0.956154 c 0,0.543001 -0.479624,0.991567 -1.069481,0.991567 H 47.62964 A 3.5180301,3.5413125 0 0 1 46.317415,39.069284 C 45.702933,38.809587 44.994636,38.86861 44.52322,39.305371 l -2.228085,2.065766 a 1.3696864,1.3787509 0 0 0 -0.263853,0.313996 1.3391968,1.3480597 0 0 0 0.454999,1.858009 9.8235129,9.8885253 0 0 0 4.046907,1.357503 v 2.089374 c 0,1.038782 0.918206,1.888697 2.036939,1.888697 h 2.036939 c 1.119907,0 2.038113,-0.849915 2.038113,-1.888697 v -2.07757 c 3.861625,-0.424958 6.782764,-3.659356 6.273818,-7.436756 -0.369389,-2.715006 -2.63383,-4.875206 -5.45998,-5.630687 L 47.0949,30.156981 a 1.0073293,1.0139958 0 0 1 -0.777485,-0.956154 c 0,-0.543003 0.479625,-0.991568 1.069481,-0.991568 h 4.17473 a 3.5180301,3.5413125 0 0 1 1.316916,0.259696 c 0.613309,0.259696 1.322779,0.200675 1.794195,-0.236088 l 2.228086,-2.065765 a 1.3262973,1.3350748 0 0 0 0.254471,-0.306914 1.3403695,1.3492401 0 0 0 -0.450308,-1.86273 9.8293764,9.894427 0 0 0 -4.048081,-1.357503 v -2.091736 c 0,-1.038784 -0.917033,-1.888699 -2.036938,-1.888699 h -2.03694 c -1.119906,0 -2.036939,0.849915 -2.036939,1.888699 v 2.077571 c -3.856934,0.424957 -6.783935,3.659356 -6.274994,7.436756 0.368221,2.715006 2.639695,4.875207 5.461156,5.630686 z m 34.501321,21.696442 c -1.383757,-1.263066 -3.541485,-1.180437 -4.995603,0 L 64.402435,66.113105 A 7.4629144,7.512304 0 0 1 59.71173,67.765719 H 45.842482 a 1.8762835,1.8887007 0 0 1 0,-3.777397 h 9.180885 c 1.864556,0 3.601291,-1.286678 3.89915,-3.139963 a 3.6587513,3.682965 0 0 0 0.05394,-0.644525 3.7525655,3.7774 0 0 0 -3.752566,-3.770315 H 36.461068 a 13.797714,13.889027 0 0 0 -8.689535,3.103372 l -5.452946,4.451431 h -6.496629 a 1.8762827,1.8887 0 0 0 -1.876283,1.888699 v 11.3322 a 1.8762827,1.8887 0 0 0 1.876283,1.888699 h 41.837586 a 7.5051308,7.5547997 0 0 0 4.690707,-1.652615 L 80.084642,63.162011 a 3.7525655,3.7774 0 0 0 0.150103,-5.772337 z"
       id="path2" />
  </g>
</svg>
