<?xml version="1.0" encoding="UTF-8"?>
<svg baseProfile="tiny" version="1.2" viewBox="0 0 100 100" xml:space="preserve" xmlns="http://www.w3.org/2000/svg">
<path d="m31.695 23.837c5.578-5.488 14.625-5.488 20.203 0l21.645 21.289-18.473 18.167c-0.962 0.942-2.5 0.942-3.46 0l-19.915-19.587c-5.486-5.358-5.59-14.15-0.232-19.637 0.076-0.079 0.154-0.156 0.232-0.232z" fill="#B48BA6"/>
<path d="m74.984 23.837c5.486 5.358 5.591 14.15 0.23 19.637-0.075 0.078-0.152 0.155-0.23 0.232l-19.917 19.587c-0.959 0.942-2.497 0.942-3.458 0l-18.472-18.168 21.644-21.289c5.58-5.487 14.626-5.487 20.203 1e-3z" fill="#C4A5B9"/>
<path d="M53.34,25.256l20.201,19.87L55.067,63.293c-0.96,0.942-2.497,0.942-3.458,0L33.137,45.125L53.34,25.256z" fill="#F7A5A6"/>
<path d="m52.27 61.924c-3.428 0.387-6.456-0.313-9.132-2.432-2.367-1.875-4.894-3.501-7.684-4.696-4.034-1.731-8.017-1.886-11.928 0.363-1.137 0.654-2.237 1.378-3.404 1.972-0.595 0.303-0.798 0.65-0.797 1.304 0.021 5.612 8e-3 11.227 6e-3 16.841 0 0.249 0.023 0.5 0.036 0.808 0.247-0.039 0.424-0.044 0.586-0.095 4.321-1.365 8.593-1.167 12.892 0.213 5.116 1.639 10.271 3.158 15.418 4.697 4.262 1.272 8.146 0.531 11.558-2.363 3.044-2.58 6.11-5.135 9.08-7.798 6.666-5.98 13.283-12.017 19.91-18.041 1.504-1.368 2.962-2.787 4.446-4.177 1.034-0.969 1.678-2.132 1.438-3.567-0.537-3.214-4.105-4.507-6.63-2.436-2.804 2.303-5.594 4.623-8.403 6.919-3.964 3.242-7.94 6.468-11.905 9.708-0.889 0.726-1.753 1.48-2.686 2.271 0.211 0.113 0.318 0.175 0.426 0.231 1.426 0.721 2.32 1.848 2.284 3.474-0.038 1.707-0.975 2.915-2.543 3.542-1.068 0.426-2.18 0.78-3.305 1.025-3.686 0.802-7.446 0.907-11.198 1.101-2.538 0.129-5.095 0.226-7.455 1.384-0.168 0.082-0.594-0.106-0.724-0.294-0.104-0.145-0.019-0.608 0.132-0.708 0.487-0.317 1.018-0.66 1.576-0.766 1.737-0.327 3.489-0.636 5.249-0.797 3.406-0.313 6.834-0.409 10.227-0.823 1.812-0.219 3.592-0.832 5.335-1.421 0.92-0.311 1.43-1.163 1.457-2.186 0.027-1.049-0.429-1.898-1.377-2.311-0.833-0.362-1.745-0.678-2.639-0.73-2.184-0.13-4.374-0.099-6.562-0.13-0.347-8e-3 -0.693 0-1.041 0" fill="#894074" fill-rule="evenodd"/>
<path d="m17.849 67.254c0 4.531 3e-3 9.063-1e-3 13.595-1e-3 1.411-0.499 1.909-1.898 1.911-2.807 6e-3 -5.614 6e-3 -8.419 0-1.428-5e-3 -1.968-0.542-1.968-1.957-3e-3 -9.09-3e-3 -18.178-2e-3 -27.267 2e-3 -1.328 0.599-1.92 1.942-1.923 2.833-7e-3 5.666-4e-3 8.498 3e-3 1.316 2e-3 1.863 0.568 1.863 1.888-2e-3 4.584-2e-3 9.166-2e-3 13.75h-0.013z" fill="#894074" fill-rule="evenodd"/>
<path d="m52.197 48.959c0-1.941 0.018-3.763-0.025-5.585-4e-3 -0.213-0.311-0.497-0.543-0.61-0.689-0.335-1.439-0.552-2.121-0.903-2.384-1.225-3.474-3.467-3.122-6.316 0.292-2.339 2.048-4.223 4.5-4.829 1.34-0.331 1.397-0.335 1.301-1.734-0.057-0.805 0.24-0.942 0.945-0.919 1.533 0.05 1.354-0.164 1.307 1.306-0.025 0.847 0.223 1.185 1.084 1.344 2.48 0.455 4.203 2.443 4.471 4.963 0.051 0.459-0.059 0.679-0.555 0.663-0.723-0.021-1.443-0.036-2.162 3e-3 -0.504 0.028-0.732-0.154-0.85-0.644-0.232-0.989-0.803-1.687-1.996-1.982v2.439c0 0.849 0.033 1.7-0.014 2.547-0.029 0.567 0.219 0.781 0.715 0.993 1.148 0.489 2.387 0.908 3.355 1.658 2.174 1.687 2.502 4.069 1.805 6.564-0.678 2.416-2.469 3.736-4.887 4.148-0.795 0.135-1.061 0.447-0.979 1.188 0.021 0.205-8e-3 0.41-0.012 0.617-0.027 1.098-0.027 1.096-1.117 1.098-1.336 2e-3 -1.088-0.023-1.096-1.063-2e-3 -0.309-0.029-0.619-0.012-0.926 0.039-0.59-0.252-0.791-0.809-0.873-3.006-0.438-4.944-2.364-5.423-5.299-0.107-0.651 0.028-0.971 0.769-0.917 0.716 0.052 1.443 0.036 2.16 2e-3 0.481-0.022 0.68 0.176 0.787 0.625 0.304 1.279 1.055 2.133 2.524 2.442zm2.293-0.051c1.453-0.18 2.316-1.269 2.273-2.761-0.037-1.283-1.029-2.341-2.332-2.421 0 1.539-2e-3 3.074 2e-3 4.609 3e-3 0.173 0.034 0.348 0.057 0.573zm-2.336-15.081c-1.253 0.144-2.023 1.044-2.033 2.318-9e-3 1.303 0.791 2.283 2.033 2.42v-4.738z" fill="#F9ED32" fill-rule="evenodd"/>
</svg>
